<svg width="32" height="32" viewBox="0 0 32 32" fill="none" xmlns="http://www.w3.org/2000/svg">
<path d="M0 10C0 4.47715 4.47715 0 10 0H22C27.5228 0 32 4.47715 32 10V22C32 27.5228 27.5228 32 22 32H10C4.47715 32 0 27.5228 0 22V10Z" fill="white"/>
<path d="M13.31 10.71C12.92 11.1 12.92 11.73 13.31 12.12L17.19 16L13.31 19.88C12.92 20.27 12.92 20.9 13.31 21.29C13.7 21.68 14.33 21.68 14.72 21.29L19.31 16.7C19.7 16.31 19.7 15.68 19.31 15.29L14.72 10.7C14.34 10.32 13.7 10.32 13.31 10.71Z" fill="#BDBDBD"/>
<path d="M10 2H22V-2H10V2ZM30 10V22H34V10H30ZM22 30H10V34H22V30ZM2 22V10H-2V22H2ZM10 30C5.58172 30 2 26.4183 2 22H-2C-2 28.6274 3.37258 34 10 34V30ZM30 22C30 26.4183 26.4183 30 22 30V34C28.6274 34 34 28.6274 34 22H30ZM22 2C26.4183 2 30 5.58172 30 10H34C34 3.37258 28.6274 -2 22 -2V2ZM10 -2C3.37258 -2 -2 3.37258 -2 10H2C2 5.58172 5.58172 2 10 2V-2Z" fill="#A598DE"/>
</svg>
