<svg width="32" height="32" viewBox="0 0 32 32" fill="none" xmlns="http://www.w3.org/2000/svg">
<path d="M0 10C0 4.47715 4.47715 0 10 0H22C27.5228 0 32 4.47715 32 10V22C32 27.5228 27.5228 32 22 32H10C4.47715 32 0 27.5228 0 22V10Z" fill="white"/>
<path d="M18.69 10.71C19.08 11.1 19.08 11.73 18.69 12.12L14.81 16L18.69 19.88C19.08 20.27 19.08 20.9 18.69 21.29C18.3 21.68 17.67 21.68 17.28 21.29L12.69 16.7C12.3 16.31 12.3 15.68 12.69 15.29L17.28 10.7C17.66 10.32 18.3 10.32 18.69 10.71Z" fill="#BDBDBD"/>
<path d="M10 2H22V-2H10V2ZM30 10V22H34V10H30ZM22 30H10V34H22V30ZM2 22V10H-2V22H2ZM10 30C5.58172 30 2 26.4183 2 22H-2C-2 28.6274 3.37258 34 10 34V30ZM30 22C30 26.4183 26.4183 30 22 30V34C28.6274 34 34 28.6274 34 22H30ZM22 2C26.4183 2 30 5.58172 30 10H34C34 3.37258 28.6274 -2 22 -2V2ZM10 -2C3.37258 -2 -2 3.37258 -2 10H2C2 5.58172 5.58172 2 10 2V-2Z" fill="#A598DE"/>
</svg>
