<svg width="122" height="24" viewBox="0 0 122 24" fill="none" xmlns="http://www.w3.org/2000/svg">
<rect x="1" y="1" width="22" height="22" rx="9" stroke="black" stroke-width="2"/>
<path d="M12.9062 4.14062L6.71875 23H1.73438L10.1875 0.25H13.3594L12.9062 4.14062ZM18.0469 23L11.8438 4.14062L11.3438 0.25H14.5469L23.0469 23H18.0469ZM17.7656 14.5312V18.2031H5.75V14.5312H17.7656Z" fill="black"/>
<path d="M41.3984 7.21289L37.5312 19H34.416L39.6992 4.78125H41.6816L41.3984 7.21289ZM44.6113 19L40.7344 7.21289L40.4219 4.78125H42.4238L47.7363 19H44.6113ZM44.4355 13.707V16.002H36.9258V13.707H44.4355ZM57.1211 14.2832H60.041C59.9824 15.2402 59.7188 16.0898 59.25 16.832C58.7878 17.5742 58.14 18.1536 57.3066 18.5703C56.4798 18.987 55.4837 19.1953 54.3184 19.1953C53.4069 19.1953 52.5898 19.0391 51.8672 18.7266C51.1445 18.4076 50.526 17.9518 50.0117 17.3594C49.5039 16.7669 49.1165 16.0508 48.8496 15.2109C48.5827 14.3711 48.4492 13.4303 48.4492 12.3887V11.4023C48.4492 10.3607 48.5859 9.41992 48.8594 8.58008C49.1393 7.73372 49.5365 7.01432 50.0508 6.42188C50.5716 5.82943 51.1934 5.3737 51.916 5.05469C52.6387 4.73568 53.446 4.57617 54.3379 4.57617C55.5228 4.57617 56.5221 4.79102 57.3359 5.2207C58.1562 5.65039 58.791 6.24284 59.2402 6.99805C59.696 7.75326 59.9694 8.61263 60.0605 9.57617H57.1309C57.0983 9.00326 56.9844 8.51823 56.7891 8.12109C56.5938 7.71745 56.2975 7.41471 55.9004 7.21289C55.5098 7.00456 54.9889 6.90039 54.3379 6.90039C53.8496 6.90039 53.4232 6.99154 53.0586 7.17383C52.694 7.35612 52.388 7.63281 52.1406 8.00391C51.8932 8.375 51.7077 8.84375 51.584 9.41016C51.4668 9.97005 51.4082 10.6276 51.4082 11.3828V12.3887C51.4082 13.1243 51.4635 13.7721 51.5742 14.332C51.6849 14.8854 51.8542 15.3542 52.082 15.7383C52.3164 16.1159 52.6159 16.4023 52.9805 16.5977C53.3516 16.7865 53.7975 16.8809 54.3184 16.8809C54.9303 16.8809 55.4349 16.7832 55.832 16.5879C56.2292 16.3926 56.5319 16.1029 56.7402 15.7188C56.9551 15.3346 57.082 14.8561 57.1211 14.2832ZM71.4473 10.5723V12.8574H64.0254V10.5723H71.4473ZM64.8945 4.78125V19H61.9648V4.78125H64.8945ZM73.5371 4.78125V19H70.6172V4.78125H73.5371ZM79.2012 4.78125V19H76.2812V4.78125H79.2012ZM91.4863 16.7148V19H83.918V16.7148H91.4863ZM84.875 4.78125V19H81.9453V4.78125H84.875ZM90.5 10.5723V12.7988H83.918V10.5723H90.5ZM91.4766 4.78125V7.07617H83.918V4.78125H91.4766ZM98.3223 16.0312L101.672 4.78125H104.934L99.9824 19H97.834L98.3223 16.0312ZM95.2363 4.78125L98.5762 16.0312L99.084 19H96.916L91.9941 4.78125H95.2363ZM115.803 16.7148V19H108.234V16.7148H115.803ZM109.191 4.78125V19H106.262V4.78125H109.191ZM114.816 10.5723V12.7988H108.234V10.5723H114.816ZM115.793 4.78125V7.07617H108.234V4.78125H115.793ZM120.51 4.78125L120.188 14.6543H117.844L117.512 4.78125H120.51ZM117.434 17.7109C117.434 17.2943 117.577 16.9492 117.863 16.6758C118.156 16.3958 118.54 16.2559 119.016 16.2559C119.497 16.2559 119.882 16.3958 120.168 16.6758C120.454 16.9492 120.598 17.2943 120.598 17.7109C120.598 18.1146 120.454 18.4564 120.168 18.7363C119.882 19.0163 119.497 19.1562 119.016 19.1562C118.54 19.1562 118.156 19.0163 117.863 18.7363C117.577 18.4564 117.434 18.1146 117.434 17.7109Z" fill="black"/>
</svg>
